<svg xmlns="http://www.w3.org/2000/svg" width="208" height="41" viewBox="0 0 208 41">
    <defs>
        <filter id="a" width="102.7%" height="144.4%" x="-1.3%" y="-19.4%" filterUnits="objectBoundingBox">
            <feOffset dy="2" in="SourceAlpha" result="shadowOffsetOuter1"/>
            <feGaussianBlur in="shadowOffsetOuter1" result="shadowBlurOuter1" stdDeviation="2"/>
            <feColorMatrix in="shadowBlurOuter1" result="shadowMatrixOuter1" values="0 0 0 0 0 0 0 0 0 0 0 0 0 0 0 0 0 0 0.1 0"/>
            <feMerge>
                <feMergeNode in="shadowMatrixOuter1"/>
                <feMergeNode in="SourceGraphic"/>
            </feMerge>
        </filter>
    </defs>
    <g fill="none" fill-rule="evenodd" filter="url(#a)" transform="translate(-20 -18)">
        <path fill="#33BE8C" d="M35.728 44.539s1.847.02 3.366-.78c.381-.209.743-.436 1.065-.707a6.17 6.17 0 0 0 1.82-2.53l-3.589-3.59-.013.386c-.06.83-.193 1.41-.364 1.84-.318.63-1.24 1.656-3.878 1.656l-.005.007h-4.615a1.788 1.788 0 0 1-1.786-1.787V33.45c0-.986.801-1.788 1.786-1.788h6.233V25.43a1.79 1.79 0 0 1 1.787-1.787h5.584a1.79 1.79 0 0 1 1.787 1.787v.363h3.718v-.363a5.51 5.51 0 0 0-5.505-5.504h-5.584a5.51 5.51 0 0 0-5.505 5.504v2.515h-2.515a5.51 5.51 0 0 0-5.504 5.505v5.584a5.51 5.51 0 0 0 5.504 5.505h6.213"/>
        <path fill="#398DE3" d="M51.14 27.945h-4.82c-1.185 0-2.185.146-2.934.308-.005.001-.008.004-.014.004a11.4 11.4 0 0 0-.567.14c-.49.15-.92.357-1.237.536-.036.019-.075.043-.113.065-.128.08-.251.163-.374.248-.122.09-.229.172-.303.231-.852.75-1.442 1.643-1.82 2.766l3.69 3.692.025-.769c.033-.455.087-.833.155-1.156l.159-.575c.09-.26.193-.469.302-.64a2.43 2.43 0 0 1 .25-.328.71.71 0 0 1 .039-.045c.111-.115.248-.22.396-.317.042-.03.088-.057.131-.085.372-.21.838-.354 1.447-.354.062 0 .107-.004.165-.004h5.423c.985 0 1.786.802 1.786 1.788v5.584c0 .986-.801 1.787-1.786 1.787h-6.234v6.234a1.79 1.79 0 0 1-1.787 1.786h-5.584a1.79 1.79 0 0 1-1.787-1.786v-.21H32.03v.21a5.51 5.51 0 0 0 5.505 5.502h5.584a5.51 5.51 0 0 0 5.505-5.502v-2.516h2.516a5.51 5.51 0 0 0 5.504-5.505V33.45a5.51 5.51 0 0 0-5.504-5.505"/>
        <path fill="#4D586B" d="M223.766 24.928h-.607l-.654 1.78c-.163.464-.294.868-.393 1.238h-.01c-.1-.381-.219-.786-.37-1.239l-.628-1.78h-.607l-.256 3.68h.452l.098-1.578c.034-.556.06-1.168.072-1.625h.01c.105.435.247.904.42 1.43l.6 1.75h.362l.65-1.784c.185-.507.331-.972.461-1.396h.012c0 .453.033 1.074.062 1.588l.086 1.614h.469l-.229-3.678M217.217 25.334h1.12v3.272h.478v-3.272h1.127v-.406h-2.725v.406M72.521 34.713c-4.576-.724-5.89-1.315-5.89-2.99 0-1.811 2.22-3.262 5.302-3.262 2.853 0 5.072 1.27 5.616 3.76h3.895c-.497-4.575-4.122-7.293-9.511-7.293-6.253 0-9.152 3.58-9.152 6.93 0 4.395 3.443 5.754 9.104 6.57 5.709.77 6.343 1.992 6.343 3.623 0 2.04-2.22 3.805-5.844 3.805-3.35 0-6.024-1.675-6.523-4.393h-3.895c.634 4.938 4.755 7.972 10.418 7.972 5.572 0 9.56-2.944 9.56-7.61 0-5.3-4.26-6.296-9.423-7.112M94.4 24.928c-6.613 0-11.731 5.528-11.731 12.322 0 6.704 5.118 12.14 11.731 12.14 6.66 0 11.734-5.436 11.734-12.14 0-6.794-5.074-12.322-11.734-12.322zm0 20.928c-4.302 0-7.836-3.85-7.836-8.606 0-4.846 3.534-8.789 7.836-8.789 4.35 0 7.884 3.943 7.884 8.789 0 4.756-3.533 8.606-7.884 8.606zM128.832 43.048l-4.984-17.53h-3.987l-4.982 17.53-4.983-17.53h-4.032l6.976 23.329h3.986l4.985-17.848 4.982 17.848h4.032l6.975-23.33h-4.032l-4.936 17.53M140.324 25.517h3.85v23.33h-3.85zM205.483 24.928c-6.614 0-11.733 5.528-11.733 12.322 0 6.704 5.119 12.14 11.733 12.14 6.66 0 11.734-5.436 11.734-12.14 0-6.794-5.074-12.322-11.734-12.322zm0 20.928c-4.303 0-7.835-3.85-7.835-8.606 0-4.846 3.532-8.789 7.835-8.789 4.35 0 7.882 3.943 7.882 8.789 0 4.756-3.533 8.606-7.882 8.606zM180.786 39.56h7.496c-.95 3.805-4.122 6.342-7.518 6.342-3.218 0-6.615-2.356-7.612-6.343-.448-1.338-.227-3.44-.227-3.44.5-4.848 4.214-7.703 8.064-7.703 3.308 0 5.663 1.587 6.932 4.304h4.076c-1.63-4.983-5.616-7.792-11.008-7.792-6.705 0-11.958 5.346-11.958 12.186 0 6.75 5.253 12.275 11.733 12.275 6.025 0 11.822-4.982 11.777-13.27h-11.755v3.44M163.129 43.243l-11.782-17.726h-3.849v23.33h3.849V31.59l11.782 17.233h3.847v-23.33h-3.847v17.75"/>
    </g>
</svg>
